# xmcd
#
# Track frame offsets:
# 150
# 16777
# 33743
# 48391
# 63623
# 73372
# 90434
# 106736
# 111978
# 129534
#
# Disc length: 1942 seconds
#
#
# Revision: 0
# Processed by: cddbd v1.5PL3 Copyright (c) Steve Scherf et al.
# Submitted via: FreeRIP 2.53 
#
DISCID=8907940a
DTITLE=McEntire, Reba - Secret Of Giving
DYEAR=1900
DGENRE=
TTITLE0=This Is My Prayer For You
TTITLE1=I Saw Mommy Kissing Santa Clause
TTITLE2=One Child, One Day
TTITLE3=Mary Did You Know
TTITLE4=Up On The Housetop
TTITLE5=The Angels Sang
TTITLE6=Santa claus Is Coming To Town
TTITLE7=The Secret Of Giving
TTITLE8=This Christmas
TTITLE9='Til The Season Comes 'Round Again
EXTD=
EXTT0=
EXTT1=
EXTT2=
EXTT3=
EXTT4=
EXTT5=
EXTT6=
EXTT7=
EXTT8=
EXTT9=
PLAYORDER=
